<svg xmlns="http://www.w3.org/2000/svg" xmlns:xlink="http://www.w3.org/1999/xlink" preserveAspectRatio="xMidYMid" width="31" height="24" viewBox="0 0 31 24">
  <defs>
    <style>
      .cls-1 {
        fill: #000;
        fill-rule: evenodd;
      }
    </style>
  </defs>
  <path d="M29.429,9.343 C29.429,9.343 29.429,10.814 29.429,12.593 C23.297,14.169 19.877,16.133 19.014,18.758 C17.521,18.758 16.103,18.758 14.949,18.758 C14.556,17.306 13.436,15.577 12.178,15.299 L12.178,9.343 L12.178,7.132 L12.178,5.991 L2.409,5.991 C1.785,5.044 1.000,3.851 1.000,3.851 L13.250,3.851 L14.809,7.132 L31.000,7.132 L31.000,9.343 L29.429,9.343 ZM24.464,6.016 L15.782,6.016 L14.602,3.566 L14.607,3.566 L15.196,2.175 L17.046,2.175 L18.195,-0.000 L20.433,-0.000 L22.716,2.746 L24.594,2.746 L25.238,3.495 L25.250,3.495 L25.250,3.508 L25.975,4.351 L27.278,4.351 L29.143,6.027 L24.464,6.027 L24.464,6.016 ZM11.071,7.132 L11.071,10.520 L11.071,10.698 L11.071,13.230 C11.071,13.230 11.196,14.137 11.071,15.058 C10.515,14.979 7.951,14.200 5.618,17.082 C5.497,17.009 5.402,16.581 4.286,16.547 C3.554,16.547 2.866,16.547 2.286,16.547 L0.571,16.547 L0.571,13.230 L0.571,10.698 L2.926,7.132 L11.071,7.132 ZM2.286,13.230 L6.750,13.230 L6.750,10.698 L6.748,8.773 L3.463,8.773 L2.286,10.698 L2.286,13.230 ZM3.916,17.646 C4.531,17.646 5.029,18.149 5.029,18.771 C5.029,19.392 4.531,19.896 3.916,19.896 L1.113,19.896 C0.498,19.896 -0.000,19.392 -0.000,18.771 C-0.000,18.149 0.498,17.646 1.113,17.646 L3.916,17.646 ZM9.842,16.396 C11.942,16.396 13.645,18.098 13.645,20.198 C13.645,22.298 11.942,24.000 9.842,24.000 C7.742,24.000 6.039,22.298 6.039,20.198 C6.039,18.098 7.742,16.396 9.842,16.396 ZM9.791,21.333 C10.428,21.333 10.945,20.820 10.945,20.188 C10.945,19.555 10.428,19.042 9.791,19.042 C9.153,19.042 8.636,19.555 8.636,20.188 C8.636,20.820 9.153,21.333 9.791,21.333 ZM24.232,16.404 C26.333,16.404 28.036,18.105 28.036,20.202 C28.036,22.300 26.333,24.000 24.232,24.000 C22.131,24.000 20.429,22.300 20.429,20.202 C20.429,18.105 22.131,16.404 24.232,16.404 ZM24.179,21.254 C24.829,21.254 25.357,20.727 25.357,20.077 C25.357,19.427 24.829,18.900 24.179,18.900 C23.528,18.900 23.000,19.427 23.000,20.077 C23.000,20.727 23.528,21.254 24.179,21.254 Z" class="cls-1"/>
</svg>
